<svg xmlns="http://www.w3.org/2000/svg" width="4096" height="2651" viewBox="0 0 4096 2651" version="1.1">
	<path d="M 3747.500 1325.085 L 3747.500 2563 3879.500 2562.921 C 3952.100 2562.878, 4010.938 2562.615, 4010.250 2562.338 C 4009.251 2561.935, 4009 2313.564, 4009 1325.167 L 4009 88.500 3879.411 88.799 C 3797.288 88.988, 3749.397 88.744, 3748.661 88.134 C 3747.780 87.402, 3747.500 385.390, 3747.500 1325.085 M 285.463 94.249 C 285.203 94.937, 285.104 539.650, 285.245 1082.500 L 285.500 2069.500 1069.500 2069.500 L 1853.500 2069.500 1853.500 1081.500 L 1853.500 93.500 1069.719 93.249 C 443.217 93.049, 285.843 93.250, 285.463 94.249 M 2049 890.999 L 2049 1689 2871.001 1689 L 3693.001 1689 3692.751 891.250 L 3692.500 93.500 2870.750 93.249 L 2049 92.999 2049 890.999 M 3753.667 93.667 C 3753.300 94.033, 3753 150.733, 3753 219.667 L 3753 345 3870.250 344.994 C 3934.738 344.991, 3991.213 344.699, 3995.750 344.346 L 4004 343.704 4004 218.352 L 4004 93 3879.167 93 C 3810.508 93, 3754.033 93.300, 3753.667 93.667 M 287 125 L 287 154 1069 154 L 1851 154 1851 125 L 1851 96 1069 96 L 287 96 287 125 " stroke="none" fill="black" fill-rule="evenodd"/>
</svg>